<svg width="25" height="24" viewBox="0 0 25 24" fill="none" xmlns="http://www.w3.org/2000/svg">
<g id="Frame">
<path id="Vector (Stroke)" fill-rule="evenodd" clip-rule="evenodd" d="M11.5 4C11.2348 4 10.9804 4.10536 10.7929 4.29289C10.6054 4.48043 10.5 4.73478 10.5 5V15C10.5 15.2652 10.6054 15.5196 10.7929 15.7071C10.9804 15.8946 11.2348 16 11.5 16H18.5C18.7652 16 19.0196 15.8946 19.2071 15.7071C19.3946 15.5196 19.5 15.2652 19.5 15V9H16.5C15.9696 9 15.4609 8.78929 15.0858 8.41421C14.7107 8.03914 14.5 7.53043 14.5 7V4H11.5ZM16.5 5.41421L18.0858 7H16.5V5.41421ZM17.5 18H18.5C19.2957 18 20.0587 17.6839 20.6213 17.1213C21.1839 16.5587 21.5 15.7957 21.5 15V8C21.5 7.73478 21.3946 7.48043 21.2071 7.29289L16.2071 2.29289C16.0196 2.10536 15.7652 2 15.5 2H11.5C10.7044 2 9.94129 2.31607 9.37868 2.87868C8.81607 3.44129 8.5 4.20435 8.5 5V6H7.5C6.70435 6 5.94129 6.31607 5.37868 6.87868C4.81607 7.44129 4.5 8.20435 4.5 9V19C4.5 19.7957 4.81607 20.5587 5.37868 21.1213C5.94129 21.6839 6.70435 22 7.5 22H14.5C15.2957 22 16.0587 21.6839 16.6213 21.1213C17.1839 20.5587 17.5 19.7957 17.5 19V18ZM15.5 18H11.5C10.7043 18 9.94129 17.6839 9.37868 17.1213C8.81607 16.5587 8.5 15.7957 8.5 15V8H7.5C7.23478 8 6.98043 8.10536 6.79289 8.29289C6.60536 8.48043 6.5 8.73478 6.5 9V19C6.5 19.2652 6.60536 19.5196 6.79289 19.7071C6.98043 19.8946 7.23478 20 7.5 20H14.5C14.7652 20 15.0196 19.8946 15.2071 19.7071C15.3946 19.5196 15.5 19.2652 15.5 19V18Z" fill="#2F9197"/>
</g>
</svg>
