<svg width="151" height="173" viewBox="0 0 151 173" fill="none" xmlns="http://www.w3.org/2000/svg">
<g opacity="0.1">
<path d="M112.234 151.301L141.584 134.037C146.166 131.342 148.979 126.423 148.979 121.108L148.979 86.4577L148.979 51.8078C148.979 46.4923 146.166 41.5738 141.584 38.8788L112.234 21.614L83.0945 4.47312C78.4002 1.71182 72.5781 1.7118 67.8839 4.47308L38.744 21.614L9.39428 38.8788C4.81274 41.5738 1.99965 46.4923 1.99965 51.8077L1.99966 86.4577L1.99966 121.108C1.99966 126.423 4.81275 131.342 9.39429 134.037L38.744 151.301L67.8839 168.442C72.5782 171.204 78.4003 171.204 83.0945 168.442L112.234 151.301Z" stroke="#2F9197" stroke-width="3" stroke-linecap="round" stroke-linejoin="round"/>
<path opacity="0.2" d="M106.999 141.684L138.499 123.244L138.499 86.3625L138.499 49.4812L106.999 31.0406L75.4993 12.6L43.9989 31.0406L12.4993 49.4812L12.4993 86.3625L12.4993 123.244L43.9989 141.684L75.4993 160.125L106.999 141.684Z" stroke="#2F9197" stroke-width="3" stroke-linecap="round" stroke-linejoin="round"/>
<path d="M4.99976 45L75.4998 86.25" stroke="#2F9197" stroke-width="3" stroke-linecap="round" stroke-linejoin="round"/>
<path d="M146 45L75.4995 86.25" stroke="#2F9197" stroke-width="3" stroke-linecap="round" stroke-linejoin="round"/>
<path d="M74.9998 2L74.9998 44" stroke="#2F9197" stroke-width="3" stroke-linecap="round" stroke-linejoin="round"/>
<path d="M4.99952 128.25L37.9995 107.25" stroke="#2F9197" stroke-width="3" stroke-linecap="round" stroke-linejoin="round"/>
<path d="M146 128.25L113 107.25" stroke="#2F9197" stroke-width="3" stroke-linecap="round" stroke-linejoin="round"/>
</g>
<path d="M75.8734 55.5C84.5595 55.5 91.5987 62.6165 91.5987 71.393C91.5987 80.1694 84.566 87.286 75.8734 87.286C67.1896 87.286 60.1482 80.1694 60.1482 71.393C60.1482 62.6165 67.1808 55.5 75.8734 55.5Z" fill="url(#paint0_linear_18_193)"/>
<path d="M75.8734 121.5C65.3348 121.5 55.6964 117.55 48.3169 111.039C47.0128 109.889 46.6087 108.004 47.4146 106.456C51.4918 98.6224 59.5209 93.2458 68.8844 93.2458H82.8624C92.2354 93.2458 100.266 98.6206 104.337 106.459C105.14 108.006 104.736 109.887 103.434 111.037C96.053 117.554 86.4081 121.5 75.8734 121.5Z" fill="url(#paint1_linear_18_193)"/>
<path d="M124.25 84.375C124.25 111.092 102.592 132.75 75.8748 132.75C49.158 132.75 27.4998 111.092 27.4998 84.375C27.4998 57.6582 49.158 36 75.8748 36C102.592 36 124.25 57.6582 124.25 84.375ZM31.5754 84.375C31.5754 108.841 51.4089 128.674 75.8748 128.674C100.341 128.674 120.174 108.841 120.174 84.375C120.174 59.9091 100.341 40.0756 75.8748 40.0756C51.4089 40.0756 31.5754 59.9091 31.5754 84.375Z" fill="url(#paint2_linear_18_193)"/>
<defs>
<linearGradient id="paint0_linear_18_193" x1="124.25" y1="84.3751" x2="28.495" y2="84.3751" gradientUnits="userSpaceOnUse">
<stop stop-color="#B7AF6B"/>
<stop offset="1" stop-color="#2F9197"/>
</linearGradient>
<linearGradient id="paint1_linear_18_193" x1="124.25" y1="84.3751" x2="28.495" y2="84.3751" gradientUnits="userSpaceOnUse">
<stop stop-color="#B7AF6B"/>
<stop offset="1" stop-color="#2F9197"/>
</linearGradient>
<linearGradient id="paint2_linear_18_193" x1="124.25" y1="84.3751" x2="28.495" y2="84.3751" gradientUnits="userSpaceOnUse">
<stop stop-color="#B7AF6B"/>
<stop offset="1" stop-color="#2F9197"/>
</linearGradient>
</defs>
</svg>
