<svg width="151" height="236" viewBox="0 0 151 236" fill="none" xmlns="http://www.w3.org/2000/svg">
<g opacity="0.1">
<path d="M112.234 151.301L141.584 134.037C146.166 131.342 148.979 126.423 148.979 121.108L148.979 86.4577L148.979 51.8078C148.979 46.4923 146.166 41.5738 141.584 38.8788L112.234 21.614L83.0947 4.47312C78.4005 1.71182 72.5784 1.7118 67.8842 4.47308L38.7442 21.614L9.39453 38.8788C4.81298 41.5738 1.9999 46.4923 1.9999 51.8077L1.9999 86.4577L1.9999 121.108C1.9999 126.423 4.81299 131.342 9.39454 134.037L38.7443 151.301L67.8842 168.442C72.5784 171.204 78.4005 171.204 83.0947 168.442L112.234 151.301Z" stroke="#2F9197" stroke-width="3" stroke-linecap="round" stroke-linejoin="round"/>
<path opacity="0.2" d="M107 141.684L138.5 123.244L138.5 86.3625L138.5 49.4812L107 31.0406L75.4995 12.6L43.9991 31.0406L12.4995 49.4812L12.4995 86.3625L12.4995 123.244L43.9992 141.684L75.4995 160.125L107 141.684Z" stroke="#2F9197" stroke-width="3" stroke-linecap="round" stroke-linejoin="round"/>
<path d="M75.5 170.25L75.5 86.25" stroke="#2F9197" stroke-width="3" stroke-linecap="round" stroke-linejoin="round"/>
<path d="M5 45L75.5 86.25" stroke="#2F9197" stroke-width="3" stroke-linecap="round" stroke-linejoin="round"/>
<path d="M146 45L75.4998 86.25" stroke="#2F9197" stroke-width="3" stroke-linecap="round" stroke-linejoin="round"/>
<path d="M75 2L75 44" stroke="#2F9197" stroke-width="3" stroke-linecap="round" stroke-linejoin="round"/>
<path d="M75 166L75 234" stroke="#2F9197" stroke-width="3" stroke-linecap="round" stroke-linejoin="round"/>
<path d="M4.99976 128.25L37.9998 107.25" stroke="#2F9197" stroke-width="3" stroke-linecap="round" stroke-linejoin="round"/>
<path d="M146 128.25L113 107.25" stroke="#2F9197" stroke-width="3" stroke-linecap="round" stroke-linejoin="round"/>
</g>
<path d="M75.8737 55.5C84.5597 55.5 91.599 62.6165 91.599 71.393C91.599 80.1694 84.5663 87.286 75.8737 87.286C67.1898 87.286 60.1484 80.1694 60.1484 71.393C60.1484 62.6165 67.1811 55.5 75.8737 55.5Z" fill="url(#paint0_linear_877_2021)"/>
<path d="M75.8737 121.5C65.335 121.5 55.6967 117.55 48.3171 111.039C47.013 109.889 46.6089 108.004 47.4148 106.456C51.492 98.6224 59.5211 93.2458 68.8847 93.2458H82.8627C92.2357 93.2458 100.267 98.6206 104.337 106.459C105.14 108.006 104.736 109.887 103.434 111.037C96.0533 117.554 86.4083 121.5 75.8737 121.5Z" fill="url(#paint1_linear_877_2021)"/>
<path d="M124.25 84.375C124.25 111.092 102.592 132.75 75.875 132.75C49.1582 132.75 27.5 111.092 27.5 84.375C27.5 57.6582 49.1582 36 75.875 36C102.592 36 124.25 57.6582 124.25 84.375ZM31.5756 84.375C31.5756 108.841 51.4091 128.674 75.875 128.674C100.341 128.674 120.174 108.841 120.174 84.375C120.174 59.9091 100.341 40.0756 75.875 40.0756C51.4091 40.0756 31.5756 59.9091 31.5756 84.375Z" fill="url(#paint2_linear_877_2021)"/>
<defs>
<linearGradient id="paint0_linear_877_2021" x1="124.25" y1="84.3751" x2="28.4952" y2="84.3751" gradientUnits="userSpaceOnUse">
<stop stop-color="#B7AF6B"/>
<stop offset="1" stop-color="#2F9197"/>
</linearGradient>
<linearGradient id="paint1_linear_877_2021" x1="124.25" y1="84.3751" x2="28.4952" y2="84.3751" gradientUnits="userSpaceOnUse">
<stop stop-color="#B7AF6B"/>
<stop offset="1" stop-color="#2F9197"/>
</linearGradient>
<linearGradient id="paint2_linear_877_2021" x1="124.25" y1="84.3751" x2="28.4952" y2="84.3751" gradientUnits="userSpaceOnUse">
<stop stop-color="#B7AF6B"/>
<stop offset="1" stop-color="#2F9197"/>
</linearGradient>
</defs>
</svg>
