<svg width="253" height="386" viewBox="0 0 253 386" fill="none" xmlns="http://www.w3.org/2000/svg">
<g opacity="0.1">
<path d="M175.979 356.736L215.113 333.717C221.221 330.123 224.972 323.565 224.972 316.478L224.972 270.278L224.972 224.078C224.972 216.991 221.221 210.433 215.113 206.839L175.979 183.82L137.126 160.965C130.867 157.283 123.105 157.283 116.846 160.965L77.9925 183.82L38.8595 206.839C32.7508 210.433 29 216.991 29 224.078L29 270.278L29 316.478C29 323.565 32.7508 330.123 38.8596 333.717L77.9925 356.736L116.846 379.591C123.105 383.273 130.867 383.273 137.126 379.591L175.979 356.736Z" stroke="#2F9197" stroke-width="4" stroke-linecap="round" stroke-linejoin="round"/>
<path opacity="0.2" d="M169 343.913L211 319.325L211 270.15L210.999 220.975L169 196.387L127 171.8L84.999 196.387L42.9995 220.975L42.9995 270.15L42.9995 319.325L84.999 343.913L127 368.5L169 343.913Z" stroke="#2F9197" stroke-width="4" stroke-linecap="round" stroke-linejoin="round"/>
<path d="M127 382L127 270" stroke="#2F9197" stroke-width="4" stroke-linecap="round" stroke-linejoin="round"/>
<path d="M33 215L127 270" stroke="#2F9197" stroke-width="4" stroke-linecap="round" stroke-linejoin="round"/>
<path d="M221 215L127 270" stroke="#2F9197" stroke-width="4" stroke-linecap="round" stroke-linejoin="round"/>
<path d="M127 2L127 213" stroke="#2F9197" stroke-width="4" stroke-linecap="round" stroke-linejoin="round"/>
<path d="M32.9999 326L76.9999 298" stroke="#2F9197" stroke-width="4" stroke-linecap="round" stroke-linejoin="round"/>
<path d="M221 326L177 298" stroke="#2F9197" stroke-width="4" stroke-linecap="round" stroke-linejoin="round"/>
</g>
<path opacity="0.05" d="M160 328.375L188.111 311.657C191.142 309.855 193 306.589 193 303.062L193 269.5L193 235.938C193 232.411 191.142 229.145 188.111 227.343L160 210.625L132.111 194.04C128.961 192.166 125.039 192.166 121.889 194.04L93.9996 210.625L65.8886 227.343C62.8575 229.145 61 232.411 61 235.938L61 269.5L61 303.062C61 306.589 62.8575 309.855 65.8886 311.657L93.9996 328.375L121.889 344.96C125.039 346.834 128.961 346.834 132.111 344.96L160 328.375Z" fill="url(#paint0_linear_28_118)"/>
<path opacity="0.1" d="M143.5 298.375L155.039 291.644C158.111 289.852 160 286.563 160 283.006L160 269.5L160 255.994C160 252.437 158.111 249.148 155.039 247.356L143.5 240.625L132.039 233.939C128.925 232.123 125.075 232.123 121.961 233.939L110.5 240.625L98.9612 247.356C95.8891 249.148 94 252.437 94 255.994L94 269.5L94 283.006C94 286.563 95.8891 289.852 98.9612 291.644L110.5 298.375L121.961 305.061C125.075 306.877 128.925 306.877 132.039 305.061L143.5 298.375Z" fill="url(#paint1_linear_28_118)"/>
<path fill-rule="evenodd" clip-rule="evenodd" d="M124.343 251.214L124.343 258C124.343 259.45 125.518 260.625 126.968 260.625C128.417 260.625 129.593 259.45 129.593 258L129.593 251.216L141.126 258L126.967 266.329L112.807 258L124.343 251.214ZM110.253 262.589L110.253 276.012L115.334 272.837C116.563 272.068 118.183 272.442 118.951 273.671C119.72 274.901 119.346 276.52 118.117 277.288L112.689 280.681L124.343 287.536L124.343 270.876L110.253 262.589ZM129.593 270.875L129.593 287.534L141.242 280.682L135.812 277.288C134.583 276.52 134.209 274.901 134.977 273.671C135.746 272.442 137.365 272.068 138.595 272.837L143.678 276.014V262.59L129.593 270.875ZM126.972 294.75C127.484 294.749 127.961 294.602 128.365 294.348L147.634 283.013C148.436 282.541 148.928 281.68 148.928 280.75V258C148.928 257.07 148.436 256.209 147.634 255.737L128.365 244.402C127.96 244.147 127.481 244 126.968 244C126.967 244 126.967 244 126.966 244C126.595 244 126.243 244.077 125.923 244.216C125.825 244.259 125.729 244.307 125.635 244.362L106.298 255.737C105.496 256.209 105.003 257.07 105.003 258L105.003 280.617C104.977 281.136 105.103 281.668 105.399 282.141C105.651 282.544 105.994 282.855 106.384 283.064L125.635 294.388C125.73 294.443 125.828 294.493 125.927 294.536C126.183 294.646 126.46 294.717 126.75 294.741C126.824 294.747 126.898 294.75 126.972 294.75Z" fill="white"/>
<defs>
<linearGradient id="paint0_linear_28_118" x1="127" y1="348" x2="127" y2="191" gradientUnits="userSpaceOnUse">
<stop stop-color="#2F9197"/>
<stop offset="1" stop-color="#B7AF6B"/>
</linearGradient>
<linearGradient id="paint1_linear_28_118" x1="127" y1="308" x2="127" y2="231" gradientUnits="userSpaceOnUse">
<stop stop-color="#2F9197"/>
<stop offset="1" stop-color="#B7AF6B"/>
</linearGradient>
</defs>
</svg>
