<svg width="200" height="235" viewBox="0 0 200 235" fill="none" xmlns="http://www.w3.org/2000/svg">
<g opacity="0.1">
<path d="M148.979 203.735L197.972 174.916L197.972 117.277L197.972 59.6381L148.979 30.8187L99.9863 1.99926L50.9927 30.8187L2.00027 59.6381L2.00028 117.277L2.00028 174.916L50.9927 203.735L99.9864 232.555L148.979 203.735Z" stroke="#2F9197" stroke-width="4" stroke-linecap="round" stroke-linejoin="round"/>
<path opacity="0.2" d="M142 190.913L184 166.325L184 117.15L184 67.975L142 43.3875L99.9997 18.8L57.9993 43.3875L15.9998 67.975L15.9998 117.15L15.9998 166.325L57.9993 190.913L99.9998 215.5L142 190.913Z" stroke="#2F9197" stroke-width="4" stroke-linecap="round" stroke-linejoin="round"/>
<path d="M100.007 232.555L100.007 117.277" stroke="#2F9197" stroke-width="4" stroke-linecap="round" stroke-linejoin="round"/>
<path d="M2.02053 59.6385L100.007 117.277" stroke="#2F9197" stroke-width="4" stroke-linecap="round" stroke-linejoin="round"/>
<path d="M198 59.6385L100.014 117.277" stroke="#2F9197" stroke-width="4" stroke-linecap="round" stroke-linejoin="round"/>
<path d="M100 2L100 60" stroke="#2F9197" stroke-width="4" stroke-linecap="round" stroke-linejoin="round"/>
<path d="M1.99999 174.92L48.1111 146.1" stroke="#2F9197" stroke-width="4" stroke-linecap="round" stroke-linejoin="round"/>
<path d="M198 174.92L151.889 146.1" stroke="#2F9197" stroke-width="4" stroke-linecap="round" stroke-linejoin="round"/>
</g>
<path d="M112.75 123.318C115.392 126.025 116.887 129.305 117.97 133.841L118.439 135.994L119.285 140.462C119.705 142.563 120.03 143.729 120.485 144.748C121.903 147.93 124.402 151.19 128.014 154.502C129.455 155.824 129.552 158.064 128.231 159.506C126.91 160.947 124.671 161.044 123.23 159.723C118.948 155.796 115.867 151.775 114.02 147.634C113.318 146.059 112.89 144.563 112.385 142.064L111.392 136.867L111.332 136.583C110.48 132.574 109.426 130.049 107.685 128.266C104.322 124.82 96.5638 125.73 94.4878 129.015C91.8366 133.209 91.1603 140.327 93.2655 147.503C94.8918 153.046 97.0503 158.501 99.7416 163.871C100.618 165.619 99.9125 167.747 98.165 168.623C96.4179 169.5 94.291 168.794 93.4147 167.046C90.5346 161.302 88.2203 155.451 86.4733 149.498C83.8235 140.466 84.6992 131.25 88.5051 125.229C93.0027 118.114 106.164 116.569 112.75 123.318ZM101.586 134.25C103.54 134.185 105.177 135.717 105.241 137.672C105.484 144.977 107.859 152.039 112.056 157.993L112.984 159.252L114.4 161.094C115.592 162.643 115.303 164.867 113.754 166.06C112.346 167.144 110.381 167.003 109.14 165.805L108.791 165.413L107.374 163.572C101.696 156.191 98.476 147.215 98.1664 137.907C98.1017 135.952 99.6326 134.315 101.586 134.25ZM84.0816 110.252C94.0475 102.87 107.084 103.27 115.853 108.91C120.242 111.732 123.565 115.023 125.775 118.794C126.764 120.481 126.198 122.651 124.512 123.64C122.825 124.628 120.657 124.063 119.668 122.376C118.056 119.624 115.525 117.117 112.026 114.868C105.596 110.733 95.7384 110.43 88.2939 115.944C80.5611 121.672 77.3056 131.484 78.2751 141.827C78.8181 147.62 80.5628 153.476 83.5285 159.409C84.4028 161.158 83.6942 163.285 81.9459 164.16C80.1976 165.035 78.0715 164.326 77.1972 162.577C73.851 155.882 71.8547 149.182 71.2273 142.488C70.046 129.885 74.1093 117.64 84.0816 110.252ZM127.402 130.56C129.354 130.459 131.018 131.961 131.119 133.914C131.265 136.762 131.969 139.09 133.202 140.963C134.238 142.536 135.158 143.444 135.861 143.794L136.148 143.911C138.02 144.477 139.078 146.453 138.512 148.325C137.946 150.197 135.971 151.256 134.1 150.69C131.521 149.91 129.302 147.913 127.291 144.86C125.33 141.881 124.258 138.333 124.05 134.278C123.949 132.325 125.45 130.66 127.402 130.56ZM92.2344 94.7261C93.0367 96.5095 92.2419 98.606 90.4595 99.4086C81.7756 103.319 75.3857 108.892 71.1881 116.164C65.9346 125.265 64.5175 135.904 65.6937 144.871C65.948 146.81 64.5831 148.588 62.645 148.843C60.7068 149.097 58.9295 147.731 58.6751 145.792C57.3122 135.402 58.9331 123.233 65.0582 112.622C70.0219 104.023 77.5546 97.4534 87.5543 92.9504C89.3368 92.1477 91.4321 92.9427 92.2344 94.7261ZM103.295 91.0099C111.93 91.1869 120.526 95.157 129.055 102.749C137.658 110.407 142.842 120.817 144.601 133.818C144.864 135.756 143.506 137.539 141.569 137.802C139.632 138.064 137.849 136.706 137.587 134.768C136.046 123.382 131.635 114.526 124.35 108.04C116.991 101.489 109.933 98.2297 103.15 98.0906C101.195 98.0506 99.6435 96.433 99.6836 94.4777C99.7237 92.5224 101.34 90.9698 103.295 91.0099ZM70.867 91.0779C72.1671 92.5383 72.0377 94.7767 70.578 96.0774C69.3126 97.2049 67.9849 98.5507 66.5985 100.114C65.2944 101.585 63.9584 103.494 62.6046 105.84C61.6269 107.533 59.4622 108.113 57.7695 107.135C56.0768 106.157 55.4972 103.991 56.4748 102.297C58.0533 99.5632 59.658 97.2698 61.3031 95.4145C62.8658 93.652 64.3868 92.1102 65.87 90.7886C67.3297 89.4879 69.567 89.6174 70.867 91.0779ZM101.945 77.0742C112.293 77.5591 120.96 80.3896 128.041 85.8605C129.588 87.0558 129.874 89.2797 128.679 90.8276C127.485 92.3755 125.262 92.6614 123.714 91.4661C117.838 86.9257 110.569 84.5684 101.614 84.1487C92.6327 83.7278 85.2782 85.49 79.365 88.7712C77.5531 89.7767 75.5198 89.2735 74.4967 87.607C73.4737 85.9406 73.9335 83.7526 75.6603 82.7363C82.9076 78.4712 91.6237 76.5905 101.945 77.0742Z" fill="url(#paint0_linear_874_1427)"/>
<defs>
<linearGradient id="paint0_linear_874_1427" x1="144.634" y1="123" x2="56.9115" y2="123" gradientUnits="userSpaceOnUse">
<stop stop-color="#B7AF6B"/>
<stop offset="1" stop-color="#2F9197"/>
</linearGradient>
</defs>
</svg>
