<svg width="14" height="14" viewBox="0 0 14 14" fill="none" xmlns="http://www.w3.org/2000/svg">
<path d="M13 6.2486C12.8166 4.92629 12.2043 3.70108 11.2575 2.76171C10.3107 1.82233 9.08182 1.22089 7.76025 1.05005C6.43869 0.879208 5.09772 1.14843 3.9439 1.81625C2.79009 2.48407 1.88744 3.51344 1.375 4.74579M1 1.74018V4.74579H4M1 7.7514C1.18342 9.07371 1.7957 10.2989 2.74252 11.2383C3.68934 12.1777 4.91818 12.7791 6.23975 12.9499C7.56131 13.1208 8.90228 12.8516 10.0561 12.1837C11.2099 11.5159 12.1126 10.4866 12.625 9.25421M13 12.2598V9.25421H10" stroke="#2F9197" stroke-width="2" stroke-linecap="round" stroke-linejoin="round"/>
</svg>
