<svg width="66" height="77" viewBox="0 0 66 77" fill="none" xmlns="http://www.w3.org/2000/svg">
<path opacity="0.1" d="M49.5 67.375L61.0387 60.6441C64.1109 58.852 66 55.563 66 52.0063L66 38.5L66 24.9937C66 21.437 64.1109 18.148 61.0387 16.3559L49.5 9.62499L38.0387 2.93923C34.9251 1.12295 31.0749 1.12294 27.9613 2.9392L16.4998 9.625L4.96125 16.3559C1.8891 18.148 1.10299e-06 21.437 1.41393e-06 24.9937L2.59469e-06 38.5L3.77545e-06 52.0063C4.08638e-06 55.563 1.8891 58.852 4.96125 60.6441L16.4998 67.375L27.9613 74.0608C31.0749 75.8771 34.9251 75.877 38.0387 74.0608L49.5 67.375Z" fill="url(#paint0_linear_20_106)"/>
<path d="M33.12 57.872C30.464 57.872 27.976 57.432 25.656 56.552C23.336 55.672 21.296 54.424 19.536 52.808C17.776 51.176 16.4 49.256 15.408 47.048C14.416 44.84 13.92 42.416 13.92 39.776C13.92 37.136 14.416 34.656 15.408 32.336C16.4 30.016 17.776 27.976 19.536 26.216C21.296 24.456 23.336 23.08 25.656 22.088C27.976 21.096 30.464 20.6 33.12 20.6C35.792 20.6 38.288 21.104 40.608 22.112C42.928 23.104 44.96 24.48 46.704 26.24C48.464 28 49.832 30.04 50.808 32.36C51.8 34.664 52.296 37.136 52.296 39.776C52.296 41.152 52.12 42.52 51.768 43.88C51.432 45.224 50.936 46.448 50.28 47.552C49.64 48.656 48.84 49.544 47.88 50.216C46.936 50.872 45.856 51.2 44.64 51.2C43.696 51.2 42.76 50.992 41.832 50.576C40.92 50.144 40.144 49.56 39.504 48.824C38.88 48.088 38.52 47.272 38.424 46.376C37.768 47.272 36.928 47.992 35.904 48.536C34.896 49.064 33.736 49.328 32.424 49.328C30.68 49.328 29.08 48.904 27.624 48.056C26.184 47.192 25.032 46.04 24.168 44.6C23.32 43.144 22.896 41.536 22.896 39.776C22.896 38.016 23.32 36.416 24.168 34.976C25.032 33.536 26.184 32.392 27.624 31.544C29.08 30.68 30.68 30.248 32.424 30.248C33.688 30.248 34.872 30.504 35.976 31.016C37.096 31.528 37.968 32.208 38.592 33.056V30.728L41.736 31.28V44.672C41.736 45.392 42.008 45.992 42.552 46.472C43.096 46.936 43.72 47.168 44.424 47.168C45.32 47.168 46.048 46.776 46.608 45.992C47.184 45.192 47.6 44.224 47.856 43.088C48.128 41.936 48.264 40.832 48.264 39.776C48.264 37.68 47.864 35.72 47.064 33.896C46.28 32.056 45.192 30.448 43.8 29.072C42.408 27.68 40.8 26.592 38.976 25.808C37.152 25.024 35.2 24.632 33.12 24.632C31.04 24.632 29.08 25.024 27.24 25.808C25.416 26.592 23.808 27.68 22.416 29.072C21.024 30.448 19.928 32.056 19.128 33.896C18.344 35.72 17.952 37.68 17.952 39.776C17.952 41.872 18.344 43.784 19.128 45.512C19.912 47.224 21 48.704 22.392 49.952C23.784 51.2 25.392 52.168 27.216 52.856C29.056 53.528 31.024 53.864 33.12 53.864V57.872ZM32.712 46.184C33.896 46.184 34.92 45.864 35.784 45.224C36.648 44.584 37.32 43.76 37.8 42.752C38.28 41.728 38.52 40.656 38.52 39.536C38.52 38.464 38.296 37.464 37.848 36.536C37.4 35.592 36.744 34.84 35.88 34.28C35.016 33.704 33.96 33.416 32.712 33.416C31.528 33.416 30.456 33.704 29.496 34.28C28.536 34.84 27.768 35.6 27.192 36.56C26.616 37.52 26.328 38.592 26.328 39.776C26.328 40.976 26.616 42.056 27.192 43.016C27.784 43.976 28.56 44.744 29.52 45.32C30.496 45.896 31.56 46.184 32.712 46.184Z" fill="white"/>
<defs>
<linearGradient id="paint0_linear_20_106" x1="33" y1="77" x2="33" y2="-4.74444e-06" gradientUnits="userSpaceOnUse">
<stop stop-color="#2F9197"/>
<stop offset="1" stop-color="#B7AF6B"/>
</linearGradient>
</defs>
</svg>
