<svg width="25" height="24" viewBox="0 0 25 24" fill="none" xmlns="http://www.w3.org/2000/svg">
<g id="Frame" clip-path="url(#clip0_2001_11704)">
<path id="Vector" d="M7.50044 17.9992C6.25272 17.9992 5.0561 17.5251 4.17383 16.6812C3.29155 15.8373 2.7959 14.6927 2.7959 13.4992C2.7959 12.3057 3.29155 11.1612 4.17383 10.3172C5.0561 9.47333 6.25272 8.99922 7.50044 8.99922C7.79513 7.6864 8.65721 6.5327 9.89703 5.79193C10.5109 5.42514 11.1991 5.17077 11.9222 5.04333C12.6453 4.9159 13.3893 4.9179 14.1116 5.04922C14.8338 5.18054 15.5203 5.43861 16.1317 5.8087C16.7432 6.17878 17.2677 6.65364 17.6752 7.20615C18.0828 7.75866 18.3654 8.378 18.507 9.02882C18.6486 9.67963 18.6464 10.3492 18.5004 10.9992H19.5004C20.4287 10.9992 21.3189 11.368 21.9753 12.0243C22.6317 12.6807 23.0004 13.571 23.0004 14.4992C23.0004 15.4275 22.6317 16.3177 21.9753 16.9741C21.3189 17.6305 20.4287 17.9992 19.5004 17.9992H7.50044Z" stroke="#2F9197" stroke-width="2" stroke-linecap="round" stroke-linejoin="round"/>
</g>
<defs>
<clipPath id="clip0_2001_11704">
<rect width="24" height="24" fill="white" transform="translate(0.5)"/>
</clipPath>
</defs>
</svg>
