<svg width="16" height="15" viewBox="0 0 16 15" fill="none" xmlns="http://www.w3.org/2000/svg">
<path fill-rule="evenodd" clip-rule="evenodd" d="M6.85659 10.25C7.14788 10.25 7.38402 10.4739 7.38402 10.75V12.7079C10.2836 11.1024 12.0281 9.96659 13.0802 8.97494C13.6907 8.39946 14.0266 7.9087 14.2216 7.44074C14.4177 6.97021 14.5043 6.44448 14.5043 5.75C14.5043 3.26472 12.3791 1.25 9.75746 1.25H6.06545C3.44382 1.25 1.31858 3.26472 1.31858 5.75C1.31858 8.23528 3.44382 10.25 6.06545 10.25H6.85659ZM7.38402 14.1529C14.4137 10.3177 15.8229 8.74691 15.8229 5.75C15.8229 2.57436 13.1073 0 9.75746 0H6.06545C2.71559 0 0 2.57436 0 5.75C0 8.92564 2.71559 11.5 6.06545 11.5V14.0086C6.06545 14.3911 6.50001 14.6318 6.85058 14.4424C7.03189 14.3445 7.20969 14.248 7.38402 14.1529Z" fill="#2F9197"/>
</svg>
