<svg width="16" height="16" viewBox="0 0 16 16" fill="none" xmlns="http://www.w3.org/2000/svg">
<path d="M8 10C9.10457 10 10 9.10457 10 8C10 6.89543 9.10457 6 8 6C6.89543 6 6 6.89543 6 8C6 9.10457 6.89543 10 8 10Z" stroke="#2F9197" stroke-linecap="round" stroke-linejoin="round"/>
<path d="M10 8L10.2222 8.83976C10.2222 9.20811 10.3685 9.56138 10.629 9.82185C10.8895 10.0823 11.2428 10.2286 11.6111 10.2286C11.9795 10.2286 12.3327 10.0823 12.5932 9.82185C12.8537 9.56138 13 9.20811 13 8.83976V8.00642C13.0014 6.93204 12.6566 5.88578 12.0169 5.02264C11.3771 4.15951 10.4763 3.5254 9.44799 3.21426C8.41964 2.90312 7.31842 2.93149 6.30746 3.29518C5.2965 3.65887 4.42958 4.33853 3.83511 5.23347C3.24065 6.12841 2.95026 7.19103 3.00697 8.26392C3.06368 9.33681 3.46447 10.3629 4.14997 11.1902C4.83547 12.0175 5.76922 12.6019 6.81288 12.857C7.85655 13.1121 8.95462 13.0242 9.94444 12.6064" stroke="#2F9197" stroke-linecap="round" stroke-linejoin="round"/>
</svg>
