<svg width="14" height="14" viewBox="0 0 14 14" fill="none" xmlns="http://www.w3.org/2000/svg">
<path d="M1 4V2.5C1 2.10218 1.15804 1.72064 1.43934 1.43934C1.72064 1.15804 2.10218 1 2.5 1H4M1 10V11.5C1 11.8978 1.15804 12.2794 1.43934 12.5607C1.72064 12.842 2.10218 13 2.5 13H4M10 1H11.5C11.8978 1 12.2794 1.15804 12.5607 1.43934C12.842 1.72064 13 2.10218 13 2.5V4M10 13H11.5C11.8978 13 12.2794 12.842 12.5607 12.5607C12.842 12.2794 13 11.8978 13 11.5V10M4.75 5.5H4.7575M9.25 5.5H9.2575M5.125 9.2875C5.36941 9.03805 5.66114 8.83988 5.9831 8.70459C6.30505 8.5693 6.65077 8.49962 7 8.49962C7.34923 8.49962 7.69495 8.5693 8.0169 8.70459C8.33886 8.83988 8.63059 9.03805 8.875 9.2875" stroke="#C11534" stroke-width="1.5" stroke-linecap="round" stroke-linejoin="round"/>
</svg>
