<svg width="18" height="18" viewBox="0 0 18 18" fill="none" xmlns="http://www.w3.org/2000/svg">
<path d="M9.72727 17H5.36364C4.20633 17 3.09642 16.5403 2.27808 15.7219C1.45974 14.9036 1 13.7937 1 12.6364V5.36364C1 4.20633 1.45974 3.09642 2.27808 2.27808C3.09642 1.45974 4.20633 1 5.36364 1H12.6364C13.7937 1 14.9036 1.45974 15.7219 2.27808C16.5403 3.09642 17 4.20633 17 5.36364V9.72727C16.2727 11.9091 11.9091 16.2727 9.72727 17Z" stroke="#2F9197" stroke-width="2" stroke-linecap="round" stroke-linejoin="round"/>
<path d="M9.66699 16.9993V14.066C9.66699 12.8991 10.1306 11.7799 10.9557 10.9547C11.7809 10.1296 12.9 9.66602 14.067 9.66602H17.0003" stroke="#2F9197" stroke-width="2" stroke-linecap="round" stroke-linejoin="round"/>
</svg>
