<svg width="64" height="77" viewBox="0 0 64 77" fill="none" xmlns="http://www.w3.org/2000/svg">
<path fill-rule="evenodd" clip-rule="evenodd" d="M32 0C32.7439 0 33.4564 0.299705 33.9767 0.831433C36.5793 3.49144 41.153 7.52928 46.2971 10.8805C51.5405 14.2963 56.9156 16.6914 61.2346 16.6914C62.7619 16.6914 64 17.9296 64 19.4569C64 27.8214 63.7122 39.1041 59.7161 49.7647C55.6704 60.5578 47.844 70.6579 33.0259 76.5774C32.3673 76.8406 31.6327 76.8406 30.9741 76.5774C16.156 70.6579 8.32964 60.5578 4.28391 49.7647C0.287814 39.1041 0 27.8214 0 19.4569C0 17.9296 1.23813 16.6914 2.76543 16.6914C7.08438 16.6914 12.4595 14.2963 17.7029 10.8805C22.847 7.52928 27.4207 3.49144 30.0233 0.831433C30.5436 0.299705 31.2561 0 32 0ZM6.90079 21.7682C6.12734 21.9303 5.54865 22.5997 5.56335 23.3898C5.70359 30.9285 6.39771 39.6463 9.46288 47.8234C12.8772 56.932 19.2496 65.416 31.3818 70.7518C31.774 70.9243 32.226 70.9243 32.6182 70.7518C44.7504 65.416 51.1228 56.932 54.5371 47.8234C57.6023 39.6463 58.2964 30.9285 58.4366 23.3898C58.4513 22.5997 57.8727 21.9303 57.0992 21.7682C52.3363 20.7697 47.4814 18.253 43.2781 15.5147C39.4043 12.991 35.8489 10.122 33.0901 7.63163C32.4716 7.07338 31.5284 7.07338 30.9099 7.63163C28.1511 10.122 24.5957 12.991 20.7219 15.5147C16.5186 18.253 11.6637 20.7697 6.90079 21.7682ZM32 29.5153C33.5273 29.5153 34.7654 30.7535 34.7654 32.2808V47.4074C34.7654 48.9347 33.5273 50.1728 32 50.1728C30.4727 50.1728 29.2346 48.9347 29.2346 47.4074V32.2808C29.2346 30.7535 30.4727 29.5153 32 29.5153Z" fill="url(#paint0_linear_920_3960)"/>
<path d="M39.1111 35.9506C39.1111 39.878 35.9274 43.0617 32 43.0617C28.0726 43.0617 24.8889 39.878 24.8889 35.9506C24.8889 32.0233 28.0726 28.8395 32 28.8395C35.9274 28.8395 39.1111 32.0233 39.1111 35.9506Z" fill="url(#paint1_linear_920_3960)"/>
<defs>
<linearGradient id="paint0_linear_920_3960" x1="55.9312" y1="21.3689" x2="5.48929" y2="54.5233" gradientUnits="userSpaceOnUse">
<stop stop-color="#B7AF6B"/>
<stop offset="1" stop-color="#2F9197"/>
</linearGradient>
<linearGradient id="paint1_linear_920_3960" x1="55.9312" y1="21.3689" x2="5.48929" y2="54.5233" gradientUnits="userSpaceOnUse">
<stop stop-color="#B7AF6B"/>
<stop offset="1" stop-color="#2F9197"/>
</linearGradient>
</defs>
</svg>
