<svg width="17" height="14" viewBox="0 0 17 14" fill="none" xmlns="http://www.w3.org/2000/svg">
<path fill-rule="evenodd" clip-rule="evenodd" d="M4.29264 0.116975C5.25083 -0.110107 6.26233 -0.00392529 7.14091 0.412501L7.50299 0.584118C7.94019 0.791337 8.32447 1.07457 8.63859 1.41413C8.68257 1.46168 8.76143 1.46168 8.80541 1.41413C9.11953 1.07457 9.50381 0.791337 9.94101 0.584118L10.3031 0.412501C11.1817 -0.00392529 12.1932 -0.110107 13.1514 0.116975C14.0722 0.335201 14.8759 0.844888 15.4338 1.54996L15.637 1.80682C16.2859 2.62707 16.6335 3.61989 16.6335 4.6363V4.92317C16.6335 5.37799 16.5746 5.83129 16.4581 6.27303L16.3873 6.54171C16.1207 7.55255 15.6431 8.50474 14.9807 9.34191L14.5679 9.86374C14.236 10.2833 13.8728 10.6803 13.481 11.0517L13.0623 11.4486C12.0576 12.401 10.8959 13.1951 9.62112 13.7993C9.05659 14.0669 8.38741 14.0669 7.82288 13.7993C6.54809 13.1951 5.38639 12.401 4.38172 11.4486L3.96299 11.0517C3.57122 10.6803 3.20804 10.2833 2.87611 9.86374L2.46325 9.34191C1.80089 8.50474 1.32332 7.55255 1.05674 6.54171L0.985878 6.27303C0.869382 5.83129 0.810547 5.37799 0.810547 4.92317V4.6363C0.810547 3.61989 1.15806 2.62707 1.80702 1.80682L2.01024 1.54996C2.56808 0.844888 3.3718 0.335201 4.29264 0.116975ZM6.52848 1.42404C5.93716 1.14377 5.26433 1.07469 4.62819 1.22544C4.01508 1.37074 3.46359 1.71404 3.07274 2.20805L2.86952 2.46491C2.37703 3.08738 2.10751 3.84931 2.10751 4.6363V4.92317C2.10751 5.29055 2.15504 5.65634 2.24891 6.01226L2.31977 6.28095C2.54953 7.15217 2.9602 7.96901 3.52575 8.68382L3.9386 9.20565C4.23609 9.58165 4.56111 9.93686 4.91112 10.2686L5.32984 10.6656C6.23962 11.528 7.2885 12.2442 8.43531 12.7878C8.61727 12.874 8.82673 12.874 9.00869 12.7878C10.1555 12.2442 11.2044 11.528 12.1142 10.6656L12.5329 10.2686C12.8829 9.93686 13.2079 9.58165 13.5054 9.20565L13.9183 8.68382C14.4838 7.96901 14.8945 7.15217 15.1242 6.28095L15.1951 6.01226C15.289 5.65634 15.3365 5.29055 15.3365 4.92317V4.6363C15.3365 3.84931 15.067 3.08738 14.5745 2.46491L14.3713 2.20805C13.9804 1.71404 13.4289 1.37074 12.8158 1.22544C12.1797 1.07469 11.5068 1.14377 10.9155 1.42404L10.5534 1.59566C10.0852 1.8176 9.69693 2.18181 9.4549 2.64068C9.02263 3.46022 8.4186 3.45495 7.9891 2.64068C7.74708 2.18181 7.3588 1.8176 6.89056 1.59566L6.52848 1.42404Z" fill="#2F9197"/>
</svg>
