<svg width="22" height="20" viewBox="0 0 22 20" fill="none" xmlns="http://www.w3.org/2000/svg">
<path d="M21.4648 8.01516C22.1784 9.24337 22.1784 10.7566 21.4648 11.9848L19.7132 14.9999L17.9619 18.0152C17.2485 19.2434 15.9299 20.0001 14.503 20L11 19.9998L7.49704 20C6.07009 20.0001 4.75152 19.2434 4.03811 18.0152L2.28678 14.9999L0.53515 11.9848C-0.178385 10.7566 -0.178385 9.24336 0.53515 8.01516L2.28678 5.00009L4.03811 1.98484C4.75152 0.756563 6.07009 -7.27143e-05 7.49704 -6.28803e-07L11 0.000176408L14.503 -3.22565e-07C15.9299 -7.22834e-05 17.2485 0.756564 17.9619 1.98484L19.7132 5.00009L21.4648 8.01516Z" fill="url(#paint0_linear_2341_3833)"/>
<path d="M11.54 14.8168L13.4499 15.8608C13.642 15.9654 13.8585 16.012 14.0748 15.9954C14.291 15.9787 14.4985 15.8995 14.6738 15.7666C14.8491 15.6336 14.9852 15.4523 15.0666 15.2431C15.1481 15.034 15.1718 14.8052 15.135 14.5828L14.771 12.3716C14.739 12.1781 14.7527 11.9794 14.811 11.7927C14.8693 11.6059 14.9704 11.4368 15.1055 11.2998L16.6487 9.73385C16.8041 9.57621 16.9141 9.37646 16.9661 9.15717C17.0181 8.93789 17.0101 8.70784 16.9431 8.49302C16.876 8.27821 16.7526 8.08721 16.5867 7.94163C16.4208 7.79604 16.219 7.70168 16.0043 7.66921L13.8712 7.3466C13.685 7.31788 13.5084 7.24262 13.3563 7.12728C13.2043 7.01194 13.0813 6.85994 12.9981 6.68432L12.0415 4.67477C11.9454 4.47223 11.7969 4.30169 11.6126 4.18244C11.4283 4.0632 11.2156 4 10.9986 4C10.7816 4 10.569 4.0632 10.3847 4.18244C10.2004 4.30169 10.0518 4.47223 9.95582 4.67477L9.00194 6.68773C8.91868 6.86335 8.79575 7.01535 8.64368 7.13069C8.49162 7.24603 8.31496 7.32129 8.12884 7.35L5.99572 7.67262C5.78097 7.70509 5.57924 7.79945 5.41333 7.94503C5.24742 8.09062 5.12396 8.28162 5.05691 8.49643C4.98986 8.71124 4.98189 8.9413 5.03391 9.16058C5.08592 9.37986 5.19585 9.57962 5.35126 9.73726L6.89448 11.3032C7.02964 11.4402 7.13074 11.6093 7.18902 11.7961C7.2473 11.9828 7.26102 12.1815 7.22899 12.375L6.86228 14.5828C6.82516 14.8055 6.84873 15.0347 6.9303 15.2442C7.01188 15.4537 7.1482 15.6353 7.32383 15.7683C7.49946 15.9013 7.70737 15.9805 7.924 15.9968C8.14064 16.0132 8.35735 15.966 8.54957 15.8608L10.4595 14.8168C10.6262 14.726 10.8116 14.6785 10.9997 14.6785C11.1879 14.6785 11.3733 14.726 11.54 14.8168Z" fill="url(#paint1_linear_2341_3833)"/>
<path d="M11.54 14.8168L13.4499 15.8608C13.642 15.9654 13.8585 16.012 14.0748 15.9954C14.291 15.9787 14.4985 15.8995 14.6738 15.7666C14.8491 15.6336 14.9852 15.4523 15.0666 15.2431C15.1481 15.034 15.1718 14.8052 15.135 14.5828L14.771 12.3716C14.739 12.1781 14.7527 11.9794 14.811 11.7927C14.8693 11.6059 14.9704 11.4368 15.1055 11.2998L16.6487 9.73385C16.8041 9.57621 16.9141 9.37646 16.9661 9.15717C17.0181 8.93789 17.0101 8.70784 16.9431 8.49302C16.876 8.27821 16.7526 8.08721 16.5867 7.94163C16.4208 7.79604 16.219 7.70168 16.0043 7.66921L13.8712 7.3466C13.685 7.31788 13.5084 7.24262 13.3563 7.12728C13.2043 7.01194 13.0813 6.85994 12.9981 6.68432L12.0415 4.67477C11.9454 4.47223 11.7969 4.30169 11.6126 4.18244C11.4283 4.0632 11.2156 4 10.9986 4C10.7816 4 10.569 4.0632 10.3847 4.18244C10.2004 4.30169 10.0518 4.47223 9.95582 4.67477L9.00194 6.68773C8.91868 6.86335 8.79575 7.01535 8.64368 7.13069C8.49162 7.24603 8.31496 7.32129 8.12884 7.35L5.99572 7.67262C5.78097 7.70509 5.57924 7.79945 5.41333 7.94503C5.24742 8.09062 5.12396 8.28162 5.05691 8.49643C4.98986 8.71124 4.98189 8.9413 5.03391 9.16058C5.08592 9.37986 5.19585 9.57962 5.35126 9.73726L6.89448 11.3032C7.02964 11.4402 7.13074 11.6093 7.18902 11.7961C7.2473 11.9828 7.26102 12.1815 7.22899 12.375L6.86228 14.5828C6.82516 14.8055 6.84873 15.0347 6.9303 15.2442C7.01188 15.4537 7.1482 15.6353 7.32383 15.7683C7.49946 15.9013 7.70737 15.9805 7.924 15.9968C8.14064 16.0132 8.35735 15.966 8.54957 15.8608L10.4595 14.8168C10.6262 14.726 10.8116 14.6785 10.9997 14.6785C11.1879 14.6785 11.3733 14.726 11.54 14.8168Z" fill="white"/>
<defs>
<linearGradient id="paint0_linear_2341_3833" x1="22.1177" y1="9.99773" x2="-0.084185" y2="9.99773" gradientUnits="userSpaceOnUse">
<stop stop-color="#FFF650"/>
<stop offset="1" stop-color="#FFAB17"/>
</linearGradient>
<linearGradient id="paint1_linear_2341_3833" x1="10.9986" y1="3.93582" x2="10.9986" y2="16.0459" gradientUnits="userSpaceOnUse">
<stop stop-color="#FFF650"/>
<stop offset="1" stop-color="#FFAB17"/>
</linearGradient>
</defs>
</svg>
