<svg width="36" height="36" viewBox="0 0 36 36" fill="none" xmlns="http://www.w3.org/2000/svg">
<path fill-rule="evenodd" clip-rule="evenodd" d="M33.6922 28.5794L25.6777 23.8435L26.8223 21.9065L33.7462 25.9978C33.7497 25.3865 33.75 24.7229 33.75 24V12C33.75 11.2771 33.7497 10.6135 33.7462 10.0022L26.8223 14.0935L25.6777 12.1565L33.6922 7.42059C33.6627 6.78044 33.618 6.21864 33.5504 5.71618C33.3643 4.33179 33.0426 3.7393 32.6517 3.34835C32.2607 2.9574 31.6682 2.63573 30.2838 2.44961C28.8347 2.25478 26.892 2.25 24 2.25H19.125V9.65625H16.875V2.25H12C9.10797 2.25 7.16529 2.25478 5.71618 2.44961C4.33179 2.63573 3.7393 2.9574 3.34835 3.34835C2.9574 3.7393 2.63573 4.33179 2.44961 5.71618C2.38205 6.21864 2.33735 6.78044 2.30777 7.42059L10.3223 12.1565L9.17768 14.0935L2.25379 10.0022C2.2503 10.6135 2.25 11.2771 2.25 12V24C2.25 24.7229 2.2503 25.3865 2.25379 25.9978L9.17768 21.9065L10.3223 23.8435L2.30777 28.5794C2.33735 29.2196 2.38205 29.7814 2.44961 30.2838C2.63573 31.6682 2.9574 32.2607 3.34835 32.6517C3.7393 33.0426 4.33179 33.3643 5.71618 33.5504C7.16529 33.7452 9.10797 33.75 12 33.75H16.875V25.9688H19.125V33.75H24C26.892 33.75 28.8347 33.7452 30.2838 33.5504C31.6682 33.3643 32.2607 33.0426 32.6517 32.6517C33.0426 32.2607 33.3643 31.6682 33.5504 30.2838C33.618 29.7814 33.6627 29.2196 33.6922 28.5794ZM1.75736 1.75736C0 3.51472 0 6.34315 0 12V24C0 29.6569 0 32.4853 1.75736 34.2426C3.51472 36 6.34315 36 12 36H24C29.6569 36 32.4853 36 34.2426 34.2426C36 32.4853 36 29.6569 36 24V12C36 6.34315 36 3.51472 34.2426 1.75736C32.4853 0 29.6569 0 24 0H12C6.34315 0 3.51472 0 1.75736 1.75736Z" fill="#040404"/>
<path fill-rule="evenodd" clip-rule="evenodd" d="M33.6922 28.5794L25.6777 23.8435L26.8223 21.9065L33.7462 25.9978C33.7497 25.3865 33.75 24.7229 33.75 24V12C33.75 11.2771 33.7497 10.6135 33.7462 10.0022L26.8223 14.0935L25.6777 12.1565L33.6922 7.42059C33.6627 6.78044 33.618 6.21864 33.5504 5.71618C33.3643 4.33179 33.0426 3.7393 32.6517 3.34835C32.2607 2.9574 31.6682 2.63573 30.2838 2.44961C28.8347 2.25478 26.892 2.25 24 2.25H19.125V9.65625H16.875V2.25H12C9.10797 2.25 7.16529 2.25478 5.71618 2.44961C4.33179 2.63573 3.7393 2.9574 3.34835 3.34835C2.9574 3.7393 2.63573 4.33179 2.44961 5.71618C2.38205 6.21864 2.33735 6.78044 2.30777 7.42059L10.3223 12.1565L9.17768 14.0935L2.25379 10.0022C2.2503 10.6135 2.25 11.2771 2.25 12V24C2.25 24.7229 2.2503 25.3865 2.25379 25.9978L9.17768 21.9065L10.3223 23.8435L2.30777 28.5794C2.33735 29.2196 2.38205 29.7814 2.44961 30.2838C2.63573 31.6682 2.9574 32.2607 3.34835 32.6517C3.7393 33.0426 4.33179 33.3643 5.71618 33.5504C7.16529 33.7452 9.10797 33.75 12 33.75H16.875V25.9688H19.125V33.75H24C26.892 33.75 28.8347 33.7452 30.2838 33.5504C31.6682 33.3643 32.2607 33.0426 32.6517 32.6517C33.0426 32.2607 33.3643 31.6682 33.5504 30.2838C33.618 29.7814 33.6627 29.2196 33.6922 28.5794ZM1.75736 1.75736C0 3.51472 0 6.34315 0 12V24C0 29.6569 0 32.4853 1.75736 34.2426C3.51472 36 6.34315 36 12 36H24C29.6569 36 32.4853 36 34.2426 34.2426C36 32.4853 36 29.6569 36 24V12C36 6.34315 36 3.51472 34.2426 1.75736C32.4853 0 29.6569 0 24 0H12C6.34315 0 3.51472 0 1.75736 1.75736Z" fill="url(#paint0_linear_1316_3661)"/>
<path fill-rule="evenodd" clip-rule="evenodd" d="M16.8751 10.2166V13.125C16.8751 13.7463 17.3788 14.25 18.0001 14.25C18.6214 14.25 19.1251 13.7463 19.1251 13.125L19.1251 10.2174L24.0681 13.125L17.9998 16.6946L11.9311 13.1248L16.8751 10.2166ZM10.8369 15.0916L10.8369 20.8444L13.0144 19.4835C13.5412 19.1542 14.2353 19.3144 14.5646 19.8413C14.8939 20.3681 14.7337 21.0622 14.2068 21.3915L11.8805 22.8454L16.8751 25.7834V18.6434L10.8369 15.0916ZM19.1251 18.643L19.1251 25.7826L24.1176 22.8458L21.7907 21.3915C21.2638 21.0622 21.1036 20.3681 21.4329 19.8413C21.7622 19.3144 22.4563 19.1542 22.9832 19.4835L25.1619 20.8452V15.092L19.1251 18.643ZM18.0019 28.875C18.2213 28.8747 18.4259 28.8115 18.5988 28.7026L26.8573 23.8447C27.201 23.6425 27.4119 23.2737 27.4119 22.875V13.125C27.4119 12.7263 27.201 12.3575 26.8573 12.1553L18.5989 7.29741C18.4255 7.18819 18.2202 7.125 18.0001 7.125C17.9999 7.125 17.9997 7.125 17.9996 7.125C17.8406 7.12508 17.6894 7.15811 17.5523 7.21764C17.5103 7.23585 17.4691 7.25675 17.429 7.28032L9.14154 12.1553C8.79792 12.3575 8.58694 12.7263 8.58694 13.125L8.58694 22.8181C8.5755 23.0404 8.62971 23.2682 8.7566 23.4712C8.86441 23.6437 9.01133 23.7769 9.17867 23.8665L17.429 28.7197C17.4698 28.7436 17.5116 28.7648 17.5543 28.7832C17.664 28.8306 17.7826 28.861 17.907 28.8712C17.9386 28.8738 17.9703 28.8751 18.0019 28.875Z" fill="white"/>
<defs>
<linearGradient id="paint0_linear_1316_3661" x1="36" y1="18" x2="0.370317" y2="18" gradientUnits="userSpaceOnUse">
<stop stop-color="#B7AF6B"/>
<stop offset="1" stop-color="#2F9197"/>
</linearGradient>
</defs>
</svg>
