<svg width="24" height="24" viewBox="0 0 24 24" fill="none" xmlns="http://www.w3.org/2000/svg">
<g clip-path="url(#clip0_1316_3509)">
<path d="M9 11C11.2091 11 13 9.20914 13 7C13 4.79086 11.2091 3 9 3C6.79086 3 5 4.79086 5 7C5 9.20914 6.79086 11 9 11Z" stroke="#70A49D" stroke-width="2" stroke-linecap="round" stroke-linejoin="round"/>
<path d="M3 21V19C3 17.9391 3.42143 16.9217 4.17157 16.1716C4.92172 15.4214 5.93913 15 7 15H11C12.0609 15 13.0783 15.4214 13.8284 16.1716C14.5786 16.9217 15 17.9391 15 19V21" stroke="#70A49D" stroke-width="2" stroke-linecap="round" stroke-linejoin="round"/>
<path d="M16 3.13086C16.8604 3.35116 17.623 3.85156 18.1676 4.55317C18.7122 5.25478 19.0078 6.11769 19.0078 7.00586C19.0078 7.89403 18.7122 8.75694 18.1676 9.45855C17.623 10.1602 16.8604 10.6606 16 10.8809" stroke="#70A49D" stroke-width="2" stroke-linecap="round" stroke-linejoin="round"/>
<path d="M21 21.0004V19.0004C20.9949 18.1175 20.6979 17.2612 20.1553 16.5648C19.6126 15.8684 18.8548 15.3711 18 15.1504" stroke="#70A49D" stroke-width="2" stroke-linecap="round" stroke-linejoin="round"/>
</g>
<defs>
<clipPath id="clip0_1316_3509">
<rect width="24" height="24" fill="white"/>
</clipPath>
</defs>
</svg>
