<svg width="28" height="28" viewBox="0 0 28 28" fill="none" xmlns="http://www.w3.org/2000/svg">
<path fill-rule="evenodd" clip-rule="evenodd" d="M18.8037 2.45459C19.1835 2.15073 19.7311 2.18105 20.075 2.525L25.475 7.925C25.8189 8.26895 25.8493 8.81651 25.5454 9.19633L14.7454 22.6963C14.5758 22.9084 14.3239 23.0381 14.0528 23.0531C13.7817 23.0681 13.517 22.967 13.325 22.775L5.225 14.675C5.033 14.483 4.93185 14.2183 4.94687 13.9472C4.96188 13.6761 5.09164 13.4242 5.30367 13.2546L18.8037 2.45459ZM20.5949 5.74494C19.8743 5.02432 18.7271 4.96079 17.9313 5.59741L9.07403 12.6833C8.14322 13.4279 8.06632 14.8163 8.9092 15.6592L12.3408 19.0908C13.1837 19.9337 14.5721 19.8568 15.3167 18.926L22.4026 10.0687C23.0392 9.27289 22.9757 8.12568 22.2551 7.40506L20.5949 5.74494Z" fill="#2F9197"/>
<path fill-rule="evenodd" clip-rule="evenodd" d="M1.175 26.825C0.802208 26.4522 0.802207 25.8478 1.175 25.475L8.6 18.05C8.97279 17.6772 9.57721 17.6772 9.95 18.05C10.3228 18.4228 10.3228 19.0272 9.95 19.4L2.525 26.825C2.15221 27.1978 1.54779 27.1978 1.175 26.825Z" fill="#2F9197"/>
<path fill-rule="evenodd" clip-rule="evenodd" d="M6.575 14.675C6.20221 15.0478 5.59779 15.0478 5.225 14.675L3.875 13.325C3.50221 12.9522 3.50221 12.3478 3.875 11.975C4.24779 11.6022 4.85221 11.6022 5.225 11.975L6.575 13.325C6.94779 13.6978 6.94779 14.3022 6.575 14.675Z" fill="#2F9197"/>
<path fill-rule="evenodd" clip-rule="evenodd" d="M16.025 24.125C15.6522 24.4978 15.0478 24.4978 14.675 24.125L11.3 20.75C10.9272 20.3772 10.9272 19.7728 11.3 19.4C11.6728 19.0272 12.2772 19.0272 12.65 19.4L16.025 22.775C16.3978 23.1478 16.3978 23.7522 16.025 24.125Z" fill="#2F9197"/>
<path fill-rule="evenodd" clip-rule="evenodd" d="M20.075 3.875C19.7022 4.24779 19.0978 4.24779 18.725 3.875L17.375 2.525C17.0022 2.15221 17.0022 1.54779 17.375 1.175C17.7478 0.802208 18.3522 0.802208 18.725 1.175L20.075 2.525C20.4478 2.89779 20.4478 3.50221 20.075 3.875Z" fill="#2F9197"/>
<path fill-rule="evenodd" clip-rule="evenodd" d="M26.825 10.625C26.4522 10.9978 25.8478 10.9978 25.475 10.625L22.775 7.925C22.4022 7.55221 22.4022 6.94779 22.775 6.575C23.1478 6.20221 23.7522 6.20221 24.125 6.575L26.825 9.275C27.1978 9.64779 27.1978 10.2522 26.825 10.625Z" fill="#2F9197"/>
</svg>
