<svg width="15" height="16" viewBox="0 0 15 16" fill="none" xmlns="http://www.w3.org/2000/svg">
<g opacity="0.4">
<path fill-rule="evenodd" clip-rule="evenodd" d="M10.1687 1.58588C10.3797 1.41707 10.6839 1.43392 10.875 1.625L13.875 4.625C14.0661 4.81608 14.0829 5.12028 13.9141 5.33129L7.91412 12.8313C7.81988 12.9491 7.67995 13.0212 7.52933 13.0295C7.37871 13.0379 7.23167 12.9817 7.125 12.875L2.625 8.375C2.51833 8.26833 2.46214 8.12129 2.47048 7.97067C2.47882 7.82005 2.55091 7.68012 2.66871 7.58588L10.1687 1.58588ZM11.625 3.875C10.9621 3.21213 9.90684 3.15368 9.17482 3.7393L5.53885 6.64807C4.60804 7.39273 4.53114 8.78114 5.37403 9.62402L5.87597 10.126C6.71886 10.9689 8.10727 10.892 8.85192 9.96115L11.7607 6.32518C12.3463 5.59316 12.2879 4.53787 11.625 3.875Z" fill="#2F9197"/>
<path fill-rule="evenodd" clip-rule="evenodd" d="M0.375 15.125C0.167893 14.9179 0.167894 14.5821 0.375 14.375L4.5 10.25C4.70711 10.0429 5.04289 10.0429 5.25 10.25C5.45711 10.4571 5.45711 10.7929 5.25 11L1.125 15.125C0.917893 15.3321 0.582107 15.3321 0.375 15.125Z" fill="#2F9197"/>
<path fill-rule="evenodd" clip-rule="evenodd" d="M3.375 8.375C3.16789 8.58211 2.83211 8.58211 2.625 8.375L1.875 7.625C1.66789 7.41789 1.66789 7.08211 1.875 6.875C2.08211 6.66789 2.41789 6.66789 2.625 6.875L3.375 7.625C3.58211 7.83211 3.58211 8.16789 3.375 8.375Z" fill="#2F9197"/>
<path fill-rule="evenodd" clip-rule="evenodd" d="M8.625 13.625C8.41789 13.8321 8.08211 13.8321 7.875 13.625L6 11.75C5.79289 11.5429 5.79289 11.2071 6 11C6.20711 10.7929 6.54289 10.7929 6.75 11L8.625 12.875C8.83211 13.0821 8.83211 13.4179 8.625 13.625Z" fill="#2F9197"/>
<path fill-rule="evenodd" clip-rule="evenodd" d="M10.875 2.375C10.6679 2.58211 10.3321 2.58211 10.125 2.375L9.375 1.625C9.16789 1.41789 9.16789 1.08211 9.375 0.875C9.58211 0.667893 9.91789 0.667893 10.125 0.875L10.875 1.625C11.0821 1.83211 11.0821 2.16789 10.875 2.375Z" fill="#2F9197"/>
<path fill-rule="evenodd" clip-rule="evenodd" d="M14.625 6.125C14.4179 6.33211 14.0821 6.33211 13.875 6.125L12.375 4.625C12.1679 4.41789 12.1679 4.08211 12.375 3.875C12.5821 3.66789 12.9179 3.66789 13.125 3.875L14.625 5.375C14.8321 5.58211 14.8321 5.91789 14.625 6.125Z" fill="#2F9197"/>
</g>
</svg>
