<svg width="33" height="32" viewBox="0 0 33 32" fill="none" xmlns="http://www.w3.org/2000/svg">
<circle opacity="0.72" cx="16.0186" cy="16" r="16" fill="#141927"/>
<path d="M22.4184 15.9996C22.4184 15.7991 22.3032 15.6311 22.1395 15.5399L22.1427 15.5345L11.5293 9.69881L11.5187 9.70414C11.4323 9.64334 11.3325 9.59961 11.2184 9.59961C10.924 9.59961 10.6851 9.83854 10.6851 10.1329C10.6851 10.1335 10.6856 10.134 10.6856 10.1351H10.6851V15.9996V21.8641H10.6856C10.6856 21.8652 10.6851 21.8657 10.6851 21.8663C10.6851 22.1607 10.924 22.3996 11.2184 22.3996C11.3325 22.3996 11.4323 22.3559 11.5192 22.2951L11.5293 22.3004L22.1427 16.4647L22.1395 16.4593C22.3032 16.3681 22.4184 16.2001 22.4184 15.9996Z" fill="white"/>
</svg>
