<svg width="12" height="14" viewBox="0 0 12 14" fill="none" xmlns="http://www.w3.org/2000/svg">
<path d="M6 13.5C5.53608 13.5 5.16 13.1239 5.16 12.66V8.91C5.16 8.35772 4.71228 7.91 4.16 7.91H0.909999C0.40742 7.91 0 7.50258 0 7C0 6.49742 0.407421 6.09 0.91 6.09H4.16C4.71229 6.09 5.16 5.64228 5.16 5.09V1.34C5.16 0.876081 5.53608 0.5 6 0.5C6.46392 0.5 6.84 0.876081 6.84 1.34V5.09C6.84 5.64228 7.28772 6.09 7.84 6.09H11.09C11.5926 6.09 12 6.49742 12 7C12 7.50258 11.5926 7.91 11.09 7.91H7.84C7.28771 7.91 6.84 8.35772 6.84 8.91V12.66C6.84 13.1239 6.46392 13.5 6 13.5Z" fill="#2F9197"/>
</svg>
