<svg width="336" height="157" viewBox="0 0 336 157" fill="none" xmlns="http://www.w3.org/2000/svg">
<g opacity="0.5">
<rect opacity="0.4" x="153.071" y="56.2297" width="45.2389" height="10.8319" rx="4" fill="#162C28"/>
<rect opacity="0.6" x="202.133" y="46.2297" width="33.7699" height="10.8319" rx="4" fill="#162C28"/>
<g filter="url(#filter0_f_650_6018)">
<rect x="135.23" y="33.2034" width="33.7699" height="10.8319" rx="4" fill="#162C28"/>
</g>
<rect opacity="0.5" x="56.2478" y="83.6282" width="33.7699" height="10.1947" rx="4" fill="#162C28"/>
<rect opacity="0.3" x="115.478" y="83.6282" width="45.2389" height="10.1947" rx="4" fill="#162C28"/>
<rect x="197.035" y="88.7253" width="34.4071" height="10.1947" rx="4" fill="#162C28"/>
<g opacity="0.57" filter="url(#filter1_f_650_6018)">
<rect x="70.8761" y="133.964" width="40.1416" height="14.6549" rx="4" fill="#162C28"/>
</g>
<g opacity="0.57" filter="url(#filter2_f_650_6018)">
<rect x="284.381" y="109.619" width="43.3274" height="13.3805" rx="4" fill="#162C28"/>
</g>
<g filter="url(#filter3_f_650_6018)">
<rect x="211.053" y="133.964" width="45.2389" height="10.1947" rx="4" fill="#162C28"/>
</g>
<g filter="url(#filter4_f_650_6018)">
<rect x="139.053" y="120.584" width="29.9469" height="10.1947" rx="4" fill="#162C28"/>
</g>
<g opacity="0.57" filter="url(#filter5_f_650_6018)">
<rect x="242.911" y="26.9202" width="66.2655" height="10.1947" rx="4" fill="#162C28"/>
</g>
<rect x="93.8142" y="54.2297" width="45.2389" height="10.8319" rx="4" fill="#162C28"/>
<rect x="224.239" y="69.6106" width="45.2389" height="10.8319" rx="4" fill="#162C28"/>
<g opacity="0.57" filter="url(#filter6_f_650_6018)">
<rect x="8.823" y="17.9998" width="75.823" height="17.2035" rx="4" fill="#162C28"/>
</g>
</g>
<path fill-rule="evenodd" clip-rule="evenodd" d="M206.585 94.9638L205.344 103.647C205.219 104.527 204.527 105.218 203.647 105.344L198.201 106.122C196.993 106.294 195.913 105.354 195.918 104.133L195.93 101.412C195.931 101.015 195.854 100.622 195.703 100.255C195.552 99.8886 195.33 99.5552 195.049 99.2747C194.769 98.9941 194.435 98.7719 194.069 98.6208C193.702 98.4697 193.309 98.3928 192.912 98.3944L189.423 98.4079C188.312 98.4121 187.411 97.5107 187.415 96.4002L187.429 92.9112C187.43 92.5144 187.353 92.1213 187.202 91.7544C187.051 91.3875 186.829 91.0542 186.548 90.7736C186.268 90.493 185.934 90.2708 185.568 90.1197C185.201 89.9686 184.807 89.8917 184.411 89.8933L177.995 89.9121C177.463 89.9137 176.952 89.7029 176.575 89.3263L173.614 86.3654C173.241 85.9967 172.778 85.7321 172.271 85.5979C171.764 85.4637 171.231 85.4645 170.724 85.6003C166.25 86.799 161.506 86.488 157.227 84.7156C152.948 82.9433 149.374 79.8085 147.058 75.7976C144.743 71.7867 143.815 67.1237 144.42 62.5319C145.024 57.9401 147.127 53.6761 150.402 50.4012C153.677 47.1263 157.941 45.0235 162.533 44.419C167.124 43.8144 171.787 44.742 175.798 47.0577C179.809 49.3734 182.944 52.9479 184.716 57.2268C186.489 61.5056 186.8 66.2498 185.601 70.7234C185.465 71.23 185.464 71.7634 185.599 72.2705C185.733 72.7775 185.997 73.2406 186.366 73.6137L206.019 93.2667C206.464 93.7118 206.674 94.3406 206.585 94.9638ZM166.928 62.2051C166.696 63.3711 166.124 64.4422 165.283 65.2829C164.156 66.4102 162.627 67.0435 161.033 67.0435C159.438 67.0435 157.909 66.4102 156.782 65.2829C155.941 64.4422 155.369 63.3711 155.137 62.2051C154.905 61.039 155.024 59.8304 155.479 58.732C155.934 57.6336 156.704 56.6948 157.693 56.0343C158.681 55.3737 159.844 55.0212 161.033 55.0212C162.221 55.0212 163.384 55.3737 164.372 56.0343C165.361 56.6948 166.131 57.6336 166.586 58.732C167.041 59.8304 167.16 61.039 166.928 62.2051Z" fill="#162C28"/>
<path d="M209.914 109.913C210.374 109.453 210.672 108.857 210.764 108.213L212.889 93.3362C212.955 92.8743 212.913 92.4034 212.765 91.9607C212.618 91.5181 212.369 91.1159 212.039 90.7859L192.541 71.288C192.069 70.8157 191.869 70.1395 191.973 69.4797C192.821 64.1165 192.037 58.6127 189.708 53.6892C187.227 48.4431 183.125 44.134 178.007 41.3983C172.889 38.6626 167.026 37.6454 161.286 38.4969C155.546 39.3484 150.231 42.0234 146.128 46.127C142.024 50.2305 139.349 55.545 138.498 61.2854C137.646 67.0259 138.663 72.888 141.399 78.006C144.135 83.124 148.444 87.2265 153.69 89.7077C158.613 92.0362 164.117 92.8209 169.48 91.9726C170.14 91.8683 170.816 92.0684 171.289 92.5407L173.784 95.0365C174.062 95.3178 174.393 95.5414 174.758 95.6946C175.123 95.8478 175.514 95.9275 175.91 95.9291L179.399 95.9156C180.509 95.9113 181.411 96.8127 181.406 97.9233L181.393 101.412C181.391 101.809 181.468 102.202 181.619 102.569C181.77 102.936 181.993 103.269 182.273 103.55C182.554 103.83 182.887 104.053 183.254 104.204C183.621 104.355 184.014 104.432 184.411 104.43L187.9 104.417C189.01 104.412 189.912 105.314 189.907 106.424L189.894 109.913C189.894 110.345 189.987 110.771 190.167 111.164C190.347 111.556 190.609 111.905 190.935 112.187C191.262 112.47 191.645 112.679 192.06 112.8C192.474 112.921 192.91 112.951 193.337 112.889L208.214 110.763C208.858 110.671 209.454 110.373 209.914 109.913ZM206.019 93.2667C206.464 93.7118 206.674 94.3406 206.585 94.9638L205.344 103.647C205.219 104.527 204.527 105.218 203.647 105.344L198.201 106.122C196.993 106.294 195.913 105.354 195.918 104.133L195.93 101.412C195.931 101.015 195.854 100.622 195.703 100.255C195.552 99.8886 195.33 99.5552 195.049 99.2747C194.769 98.9941 194.435 98.7719 194.069 98.6208C193.702 98.4697 193.309 98.3928 192.912 98.3944L189.423 98.4079C188.312 98.4121 187.411 97.5107 187.415 96.4002L187.429 92.9112C187.43 92.5144 187.353 92.1213 187.202 91.7544C187.051 91.3875 186.829 91.0542 186.548 90.7736C186.268 90.493 185.934 90.2708 185.568 90.1197C185.201 89.9686 184.807 89.8917 184.411 89.8933L177.995 89.9121C177.463 89.9137 176.952 89.7029 176.575 89.3263L173.614 86.3654C173.241 85.9967 172.778 85.7321 172.271 85.5979C171.764 85.4637 171.231 85.4645 170.724 85.6003C166.25 86.799 161.506 86.488 157.227 84.7156C152.948 82.9433 149.374 79.8085 147.058 75.7976C144.743 71.7867 143.815 67.1237 144.42 62.5319C145.024 57.9401 147.127 53.6761 150.402 50.4012C153.677 47.1263 157.941 45.0235 162.533 44.419C167.124 43.8144 171.787 44.742 175.798 47.0577C179.809 49.3734 182.944 52.9479 184.716 57.2268C186.489 61.5056 186.8 66.2498 185.601 70.7234C185.465 71.23 185.464 71.7634 185.599 72.2705C185.733 72.7775 185.997 73.2406 186.366 73.6137L206.019 93.2667Z" fill="url(#paint0_linear_650_6018)"/>
<path d="M165.283 65.2829C166.124 64.4422 166.696 63.3711 166.928 62.2051C167.16 61.039 167.041 59.8304 166.586 58.732C166.131 57.6336 165.361 56.6948 164.372 56.0343C163.384 55.3737 162.221 55.0212 161.033 55.0212C159.844 55.0212 158.681 55.3737 157.693 56.0343C156.704 56.6948 155.934 57.6336 155.479 58.732C155.024 59.8304 154.905 61.039 155.137 62.2051C155.369 63.3711 155.941 64.4422 156.782 65.2829C157.909 66.4102 159.438 67.0435 161.033 67.0435C162.627 67.0435 164.156 66.4102 165.283 65.2829Z" fill="url(#paint1_linear_650_6018)"/>
<defs>
<filter id="filter0_f_650_6018" x="131.23" y="29.2034" width="41.7699" height="18.8318" filterUnits="userSpaceOnUse" color-interpolation-filters="sRGB">
<feFlood flood-opacity="0" result="BackgroundImageFix"/>
<feBlend mode="normal" in="SourceGraphic" in2="BackgroundImageFix" result="shape"/>
<feGaussianBlur stdDeviation="2" result="effect1_foregroundBlur_650_6018"/>
</filter>
<filter id="filter1_f_650_6018" x="62.8761" y="125.964" width="56.1416" height="30.6548" filterUnits="userSpaceOnUse" color-interpolation-filters="sRGB">
<feFlood flood-opacity="0" result="BackgroundImageFix"/>
<feBlend mode="normal" in="SourceGraphic" in2="BackgroundImageFix" result="shape"/>
<feGaussianBlur stdDeviation="4" result="effect1_foregroundBlur_650_6018"/>
</filter>
<filter id="filter2_f_650_6018" x="276.381" y="101.619" width="59.3274" height="29.3806" filterUnits="userSpaceOnUse" color-interpolation-filters="sRGB">
<feFlood flood-opacity="0" result="BackgroundImageFix"/>
<feBlend mode="normal" in="SourceGraphic" in2="BackgroundImageFix" result="shape"/>
<feGaussianBlur stdDeviation="4" result="effect1_foregroundBlur_650_6018"/>
</filter>
<filter id="filter3_f_650_6018" x="207.053" y="129.964" width="53.2389" height="18.1946" filterUnits="userSpaceOnUse" color-interpolation-filters="sRGB">
<feFlood flood-opacity="0" result="BackgroundImageFix"/>
<feBlend mode="normal" in="SourceGraphic" in2="BackgroundImageFix" result="shape"/>
<feGaussianBlur stdDeviation="2" result="effect1_foregroundBlur_650_6018"/>
</filter>
<filter id="filter4_f_650_6018" x="135.053" y="116.584" width="37.9469" height="18.1946" filterUnits="userSpaceOnUse" color-interpolation-filters="sRGB">
<feFlood flood-opacity="0" result="BackgroundImageFix"/>
<feBlend mode="normal" in="SourceGraphic" in2="BackgroundImageFix" result="shape"/>
<feGaussianBlur stdDeviation="2" result="effect1_foregroundBlur_650_6018"/>
</filter>
<filter id="filter5_f_650_6018" x="234.911" y="18.9202" width="82.2655" height="26.1946" filterUnits="userSpaceOnUse" color-interpolation-filters="sRGB">
<feFlood flood-opacity="0" result="BackgroundImageFix"/>
<feBlend mode="normal" in="SourceGraphic" in2="BackgroundImageFix" result="shape"/>
<feGaussianBlur stdDeviation="4" result="effect1_foregroundBlur_650_6018"/>
</filter>
<filter id="filter6_f_650_6018" x="0.822998" y="9.99976" width="91.823" height="33.2036" filterUnits="userSpaceOnUse" color-interpolation-filters="sRGB">
<feFlood flood-opacity="0" result="BackgroundImageFix"/>
<feBlend mode="normal" in="SourceGraphic" in2="BackgroundImageFix" result="shape"/>
<feGaussianBlur stdDeviation="4" result="effect1_foregroundBlur_650_6018"/>
</filter>
<linearGradient id="paint0_linear_650_6018" x1="203.5" y1="59" x2="151.5" y2="100" gradientUnits="userSpaceOnUse">
<stop stop-color="#B7AF6B"/>
<stop offset="1" stop-color="#2F9197"/>
</linearGradient>
<linearGradient id="paint1_linear_650_6018" x1="203.5" y1="59" x2="151.5" y2="100" gradientUnits="userSpaceOnUse">
<stop stop-color="#B7AF6B"/>
<stop offset="1" stop-color="#2F9197"/>
</linearGradient>
</defs>
</svg>
