<svg width="58" height="67" viewBox="0 0 58 67" fill="none" xmlns="http://www.w3.org/2000/svg">
<g opacity="0.1">
<path d="M28.9987 0C37.7223 0 44.792 7.22435 44.792 16.1338C44.792 25.0432 37.7289 32.2676 28.9987 32.2676C20.2772 32.2676 13.2053 25.0432 13.2053 16.1338C13.2053 7.22435 20.2685 0 28.9987 0Z" fill="url(#paint0_linear_650_4602)"/>
<path d="M28.9987 67C18.4144 67 8.73431 62.9906 1.3228 56.3808C0.0130943 55.2128 -0.392785 53.2997 0.416615 51.7278C4.51144 43.7757 12.5753 38.3177 21.9794 38.3177H36.0179C45.4315 38.3177 53.4973 43.7739 57.5851 51.7308C58.392 53.3014 57.9861 55.2115 56.6786 56.3785C49.2656 62.9947 39.5789 67 28.9987 67Z" fill="url(#paint1_linear_650_4602)"/>
</g>
<defs>
<linearGradient id="paint0_linear_650_4602" x1="85.1528" y1="23.9764" x2="-26.0002" y2="23.9764" gradientUnits="userSpaceOnUse">
<stop stop-color="#2F9197"/>
<stop offset="1" stop-color="#2F9197"/>
</linearGradient>
<linearGradient id="paint1_linear_650_4602" x1="85.1528" y1="23.9764" x2="-26.0002" y2="23.9764" gradientUnits="userSpaceOnUse">
<stop stop-color="#2F9197"/>
<stop offset="1" stop-color="#2F9197"/>
</linearGradient>
</defs>
</svg>
