<svg width="20" height="14" viewBox="0 0 20 14" fill="none" xmlns="http://www.w3.org/2000/svg">
<path d="M4.40962 0.969689C4.20365 0.774427 3.8697 0.774427 3.66372 0.969689L0.933335 3.55808C0.675867 3.80216 0.675867 4.19788 0.933335 4.44196C1.1908 4.68604 1.60824 4.68604 1.86571 4.44196L3.37739 3.0089V10.5C3.37739 12.2259 4.85325 13.625 6.67382 13.625H10.8933C11.2574 13.625 11.5526 13.3452 11.5526 13C11.5526 12.6548 11.2574 12.375 10.8933 12.375H6.67382C5.58148 12.375 4.69596 11.5356 4.69596 10.5V3.0089L6.20764 4.44196C6.46511 4.68604 6.88254 4.68604 7.14001 4.44196C7.39748 4.19788 7.39748 3.80216 7.14001 3.55808L4.40962 0.969689Z" fill="#2F9197"/>
<path d="M15.9265 13.6553C16.1325 13.8506 16.4664 13.8506 16.6724 13.6553L19.4028 11.0669C19.6602 10.8228 19.6602 10.4271 19.4028 10.183C19.1453 9.93896 18.7279 9.93896 18.4704 10.183L16.9587 11.6161V4.12498C16.9587 2.39909 15.4828 0.999981 13.6623 0.999981H9.44283C9.07872 0.999981 8.78355 1.2798 8.78355 1.62498C8.78355 1.97016 9.07872 2.24998 9.44283 2.24998H13.6623C14.7546 2.24998 15.6401 3.08945 15.6401 4.12498V11.6161L14.1285 10.183C13.871 9.93896 13.4536 9.93896 13.1961 10.183C12.9386 10.4271 12.9386 10.8228 13.1961 11.0669L15.9265 13.6553Z" fill="#2F9197"/>
</svg>
