<svg width="20" height="20" viewBox="0 0 20 20" fill="none" xmlns="http://www.w3.org/2000/svg">
<path d="M9.06251 0C14.0676 0 18.125 4.05743 18.125 9.06251C18.125 11.2274 17.3659 13.2149 16.0994 14.7735L19.7254 18.3996C20.0915 18.7658 20.0915 19.3593 19.7254 19.7254C19.3927 20.0583 18.8718 20.0885 18.5048 19.8161L18.3997 19.7254L14.7735 16.0994C13.2149 17.3659 11.2274 18.125 9.06251 18.125C4.05743 18.125 0 14.0676 0 9.06251C0 4.05743 4.05743 0 9.06251 0ZM9.06251 1.875C5.09296 1.875 1.875 5.09295 1.875 9.06251C1.875 13.032 5.09296 16.25 9.06251 16.25C13.032 16.25 16.25 13.032 16.25 9.06251C16.25 5.09295 13.032 1.875 9.06251 1.875Z" fill="#2F9197"/>
</svg>
