<svg width="17" height="15" viewBox="0 0 17 15" fill="none" xmlns="http://www.w3.org/2000/svg">
<path fill-rule="evenodd" clip-rule="evenodd" d="M8.58394 0.146447C8.78991 -0.0488154 9.12386 -0.0488157 9.32983 0.146446L13.1151 3.73484C13.3726 3.97891 13.3726 4.37464 13.1151 4.61872C12.8576 4.8628 12.4402 4.8628 12.1827 4.61872L9.61617 2.18566V9.67678C9.61617 10.022 9.321 10.3018 8.95689 10.3018C8.59277 10.3018 8.2976 10.022 8.2976 9.67678V2.18566L5.73106 4.61872C5.47359 4.8628 5.05615 4.8628 4.79869 4.61872C4.54122 4.37464 4.54122 3.97891 4.79869 3.73484L8.58394 0.146447ZM1.57286 8.05178C1.93698 8.05178 2.23215 8.3316 2.23215 8.67678V12.6768C2.23215 13.16 2.64539 13.5518 3.15515 13.5518H14.7586C15.2684 13.5518 15.6816 13.16 15.6816 12.6768V8.67678C15.6816 8.3316 15.9768 8.05178 16.3409 8.05178C16.705 8.05178 17.0002 8.3316 17.0002 8.67678V12.6768C17.0002 13.8504 15.9966 14.8018 14.7586 14.8018H3.15515C1.91716 14.8018 0.913574 13.8504 0.913574 12.6768V8.67678C0.913574 8.3316 1.20875 8.05178 1.57286 8.05178Z" fill="#2F9197"/>
</svg>
