<svg width="22" height="22" viewBox="0 0 22 22" fill="none" xmlns="http://www.w3.org/2000/svg">
<path fill-rule="evenodd" clip-rule="evenodd" d="M0 3C-1.19209e-07 1.34315 1.34315 0 3 0H7C8.65685 0 10 1.34315 10 3V7C10 8.65685 8.65685 10 7 10H3C1.34315 10 2.38419e-07 8.65685 1.78814e-07 7L0 3ZM3 2C2.44772 2 2 2.44772 2 3L2 7C2 7.55228 2.44772 8 3 8H7C7.55228 8 8 7.55228 8 7V3C8 2.44772 7.55228 2 7 2H3Z" fill="#2F9197"/>
<path fill-rule="evenodd" clip-rule="evenodd" d="M0 15C-1.19209e-07 13.3431 1.34315 12 3 12H7C8.65685 12 10 13.3431 10 15V19C10 20.6569 8.65685 22 7 22H3C1.34315 22 2.38419e-07 20.6569 1.78814e-07 19L0 15ZM3 14C2.44772 14 2 14.4477 2 15L2 19C2 19.5523 2.44772 20 3 20H7C7.55228 20 8 19.5523 8 19V15C8 14.4477 7.55228 14 7 14H3Z" fill="#2F9197"/>
<path fill-rule="evenodd" clip-rule="evenodd" d="M12 3C12 1.34315 13.3431 0 15 0H19C20.6569 0 22 1.34315 22 3V7C22 8.65685 20.6569 10 19 10H15C13.3431 10 12 8.65685 12 7V3ZM15 2C14.4477 2 14 2.44772 14 3V7C14 7.55228 14.4477 8 15 8H19C19.5523 8 20 7.55228 20 7V3C20 2.44772 19.5523 2 19 2H15Z" fill="#2F9197"/>
<path fill-rule="evenodd" clip-rule="evenodd" d="M12 15C12 13.3431 13.3431 12 15 12H19C20.6569 12 22 13.3431 22 15V19C22 20.6569 20.6569 22 19 22H15C13.3431 22 12 20.6569 12 19V15ZM15 14C14.4477 14 14 14.4477 14 15V19C14 19.5523 14.4477 20 15 20H19C19.5523 20 20 19.5523 20 19V15C20 14.4477 19.5523 14 19 14H15Z" fill="#2F9197"/>
</svg>
