<svg width="26" height="27" viewBox="0 0 26 27" fill="none" xmlns="http://www.w3.org/2000/svg">
<path fill-rule="evenodd" clip-rule="evenodd" d="M19.0386 2.05273C20.6954 2.05273 22.0386 3.39588 22.0386 5.05273C22.0386 6.70959 20.6954 8.05273 19.0386 8.05273C17.3817 8.05273 16.0386 6.70959 16.0386 5.05273C16.0386 3.39588 17.3817 2.05273 19.0386 2.05273Z" fill="#2F9197" stroke="#2F9197" stroke-width="2" stroke-linecap="round"/>
<path d="M12.9876 5.05273C13.5399 5.05273 13.987 4.60502 13.9862 4.05273C13.9855 3.50045 13.5371 3.05274 12.9848 3.05274L12.9876 5.05273ZM3.06635 23.9481L2.35826 23.2409C2.07266 23.5269 1.98771 23.9571 2.14301 24.3307C2.29831 24.7044 2.66329 24.9481 3.06775 24.9481L3.06635 23.9481ZM5.97589 21.0345L6.68398 21.7416C6.87126 21.554 6.97626 21.2997 6.97589 21.0345C6.97552 20.7692 6.86981 20.5149 6.68201 20.3273L5.97589 21.0345ZM23.0454 9.65554C22.8253 9.14869 22.2363 8.91564 21.7297 9.135C21.2232 9.35437 20.991 9.94308 21.211 10.4499L23.0454 9.65554ZM21.9478 14.0004C21.9547 18.9421 17.9543 22.9481 13.0126 22.9481L13.0154 24.9481C19.0617 24.9481 23.9562 20.0466 23.9478 14.0004H21.9478ZM4.05246 14.0004C4.04556 9.05874 8.04598 5.05273 12.9876 5.05273L12.9848 3.05274C6.93862 3.05274 2.04402 7.95417 2.05246 14.0004H4.05246ZM13.0126 22.9481H3.06496L3.06775 24.9481H13.0154L13.0126 22.9481ZM6.68201 20.3273C5.05944 18.707 4.05591 16.4715 4.05246 14.0004H2.05246C2.05668 17.0232 3.28696 19.7615 5.26977 21.7416L6.68201 20.3273ZM3.77445 24.6552L6.68398 21.7416L5.2678 20.3273L2.35826 23.2409L3.77445 24.6552ZM21.211 10.4499C21.6831 11.5371 21.946 12.7369 21.9478 14.0004H23.9478C23.9456 12.4586 23.6243 10.9888 23.0454 9.65554L21.211 10.4499Z" fill="#2F9197"/>
</svg>
