<svg width="20" height="19" viewBox="0 0 20 19" fill="none" xmlns="http://www.w3.org/2000/svg">
<path fill-rule="evenodd" clip-rule="evenodd" d="M9.99343 5.38914C10.1335 5.38776 10.2723 5.41524 10.4015 5.46989C10.5307 5.52454 10.6475 5.60523 10.7447 5.707C10.842 5.80877 10.9177 5.92951 10.9671 6.06182C11.0166 6.19412 11.0389 6.33523 11.0325 6.47653L10.7479 12.5945C10.7292 12.9958 10.4015 13.3115 10.0037 13.3115C9.60583 13.3115 9.27817 12.9958 9.25947 12.5945L8.97438 6.47527C8.97425 6.47267 8.97415 6.47007 8.97405 6.46747C8.96901 6.32859 8.99158 6.19011 9.04041 6.0602C9.08923 5.93029 9.16334 5.81157 9.25836 5.71105C9.35338 5.61053 9.46738 5.53026 9.59362 5.47497C9.71986 5.41969 9.85583 5.3905 9.99343 5.38914Z" fill="#70A49D"/>
<path d="M10 16.0061C9.8189 16.0061 9.64187 15.952 9.49129 15.8508C9.34072 15.7496 9.22336 15.6057 9.15405 15.4374C9.08475 15.2691 9.06662 15.0838 9.10195 14.9051C9.13728 14.7264 9.22448 14.5623 9.35254 14.4335C9.4806 14.3046 9.64375 14.2169 9.82137 14.1813C9.99899 14.1458 10.1831 14.164 10.3504 14.2338C10.5177 14.3035 10.6607 14.4216 10.7613 14.573C10.8619 14.7245 10.9157 14.9026 10.9157 15.0848C10.9157 15.3292 10.8192 15.5635 10.6475 15.7362C10.4757 15.909 10.2428 16.0061 10 16.0061Z" fill="#70A49D"/>
<path fill-rule="evenodd" clip-rule="evenodd" d="M11.935 1.16262C11.1049 -0.387539 8.89511 -0.387539 8.06497 1.16262L8.06489 1.16278L0.262628 15.741C0.0823952 16.0778 -0.00790786 16.4558 0.000543091 16.8382C0.008994 17.2206 0.11591 17.5943 0.310842 17.9227C0.505774 18.2511 0.782054 18.523 1.11268 18.7118C1.44331 18.9006 1.81698 18.9999 2.19717 19H17.8028C18.183 18.9999 18.5567 18.9006 18.8873 18.7118C19.2179 18.523 19.4942 18.2511 19.6892 17.9227C19.8841 17.5943 19.991 17.2206 19.9995 16.8382C20.0079 16.4558 19.9176 16.0777 19.7374 15.741L11.9351 1.16278L11.935 1.16262ZM1.46522 16.8055C1.4624 16.678 1.49251 16.552 1.55258 16.4397L9.35482 1.86156C9.63174 1.34473 10.3683 1.34473 10.6452 1.86156L18.4474 16.4397C18.5075 16.552 18.5376 16.678 18.5348 16.8055C18.532 16.9329 18.4963 17.0575 18.4313 17.167C18.3664 17.2764 18.2743 17.3671 18.1641 17.43C18.0539 17.4929 17.9294 17.526 17.8027 17.5261H2.1973C2.07061 17.526 1.9461 17.4929 1.83593 17.43C1.72572 17.3671 1.63363 17.2764 1.56865 17.167C1.50368 17.0575 1.46804 16.9329 1.46522 16.8055ZM10.4015 5.46989C10.2723 5.41524 10.1335 5.38776 9.99343 5.38914C9.85583 5.3905 9.71986 5.41969 9.59362 5.47497C9.46738 5.53026 9.35338 5.61053 9.25836 5.71105C9.16334 5.81157 9.08923 5.93029 9.04041 6.0602C8.99158 6.19011 8.96901 6.32859 8.97405 6.46747C8.97415 6.47007 8.97425 6.47267 8.97438 6.47527L9.25947 12.5945C9.27817 12.9958 9.60583 13.3115 10.0037 13.3115C10.4015 13.3115 10.7292 12.9958 10.7479 12.5945L11.0325 6.47653C11.0389 6.33523 11.0166 6.19412 10.9671 6.06182C10.9177 5.92951 10.842 5.80877 10.7447 5.707C10.6475 5.60523 10.5307 5.52454 10.4015 5.46989ZM10 16.0061C9.8189 16.0061 9.64187 15.952 9.49129 15.8508C9.34072 15.7496 9.22336 15.6057 9.15405 15.4374C9.08475 15.2691 9.06662 15.0838 9.10195 14.9051C9.13728 14.7264 9.22448 14.5623 9.35254 14.4335C9.4806 14.3046 9.64375 14.2169 9.82137 14.1813C9.99899 14.1458 10.1831 14.164 10.3504 14.2338C10.5177 14.3035 10.6607 14.4216 10.7613 14.573C10.8619 14.7245 10.9157 14.9026 10.9157 15.0848C10.9157 15.3292 10.8192 15.5635 10.6475 15.7362C10.4757 15.909 10.2428 16.0061 10 16.0061Z" fill="#70A49D"/>
</svg>
